<svg xmlns="http://www.w3.org/2000/svg" width="140" height="40" viewBox="0 0 140 40" fill="none">
  <path d="M138.597 35.3868C138.597 37.5185 136.834 39.2451 134.654 39.2451H5.62185C3.44267 39.2451 1.67383 37.5185 1.67383 35.3868V4.61794C1.67383 2.4873 3.44267 0.754578 5.62185 0.754578H134.653C136.834 0.754578 138.596 2.4873 138.596 4.61794L138.597 35.3868Z" fill="black"/>
  <path d="M134.238 0.801252C136.612 0.801252 138.544 2.685 138.544 5V35C138.544 37.315 136.612 39.1988 134.238 39.1988H6.0325C3.65814 39.1988 1.72609 37.315 1.72609 35V5C1.72609 2.685 3.65814 0.801252 6.0325 0.801252H134.238ZM134.238 2.11397e-06H6.0325C3.21327 2.11397e-06 0.904297 2.25125 0.904297 5V35C0.904297 37.7487 3.21327 40 6.0325 40H134.238C137.057 40 139.366 37.7487 139.366 35V5C139.366 2.25125 137.057 2.11397e-06 134.238 2.11397e-06Z" fill="#A6A6A6" fill-opacity="0.2"/>
  <path d="M31.806 19.7842C31.7763 16.5612 34.5127 14.9932 34.6378 14.9202C33.0881 12.7172 30.686 12.4162 29.8419 12.3922C27.8245 12.1852 25.8675 13.5692 24.8398 13.5692C23.7916 13.5692 22.2091 12.4122 20.5034 12.4462C18.3086 12.4792 16.2552 13.7182 15.1291 15.6422C12.805 19.5652 14.5383 25.3302 16.765 28.5012C17.8788 30.0542 19.1804 31.7882 20.8839 31.7272C22.5506 31.6602 23.1732 30.6912 25.1845 30.6912C27.1773 30.6912 27.7619 31.7272 29.4993 31.6882C31.2881 31.6602 32.4142 30.1282 33.4891 28.5612C34.7763 26.7812 35.2932 25.0282 35.3137 24.9382C35.2716 24.9242 31.8398 23.6472 31.806 19.7842Z" fill="white"/>
  <path d="M28.5239 10.3062C29.4204 9.21322 30.0337 7.72622 29.8634 6.21722C28.566 6.27322 26.9434 7.09222 26.0091 8.16122C25.1824 9.10322 24.4439 10.6472 24.6347 12.0992C26.0922 12.2052 27.5886 11.3822 28.5239 10.3062Z" fill="white"/>
  <path d="M55.9254 31.504H53.5962L52.3203 27.595H47.8854L46.67 31.504H44.4023L48.7962 18.196H51.51L55.9254 31.504ZM51.9357 25.955L50.7818 22.48C50.6598 22.125 50.4311 21.289 50.0936 19.973H50.0526C49.9182 20.539 49.7018 21.375 49.4044 22.48L48.2711 25.955H51.9357Z" fill="white"/>
  <path d="M67.224 26.5883C67.224 28.2203 66.7717 29.5103 65.8671 30.4573C65.0569 31.3003 64.0507 31.7213 62.8497 31.7213C61.5533 31.7213 60.622 31.2673 60.0548 30.3593H60.0138V35.4143H57.8271V25.0673C57.8271 24.0413 57.7994 22.9883 57.7461 21.9083H59.6692L59.7912 23.4293H59.8322C60.5615 22.2833 61.6681 21.7113 63.1533 21.7113C64.3143 21.7113 65.2835 22.1583 66.0589 23.0533C66.8363 23.9493 67.224 25.1273 67.224 26.5883ZM64.9963 26.6663C64.9963 25.7323 64.781 24.9623 64.3481 24.3563C63.8753 23.7243 63.2404 23.4083 62.4446 23.4083C61.9051 23.4083 61.4148 23.5843 60.9769 23.9313C60.5379 24.2813 60.2507 24.7383 60.1163 25.3043C60.0487 25.5683 60.0148 25.7843 60.0148 25.9543V27.5543C60.0148 28.2523 60.2343 28.8413 60.6733 29.3223C61.1122 29.8033 61.6825 30.0433 62.384 30.0433C63.2076 30.0433 63.8487 29.7333 64.3071 29.1153C64.7666 28.4963 64.9963 27.6803 64.9963 26.6663Z" fill="white"/>
  <path d="M78.5433 26.5883C78.5433 28.2203 78.091 29.5103 77.1854 30.4573C76.3762 31.3003 75.37 31.7213 74.169 31.7213C72.8726 31.7213 71.9413 31.2673 71.3751 30.3593H71.3341V35.4143H69.1474V25.0673C69.1474 24.0413 69.1197 22.9883 69.0664 21.9083H70.9895L71.1115 23.4293H71.1526C71.8808 22.2833 72.9874 21.7113 74.4736 21.7113C75.6336 21.7113 76.6028 22.1583 77.3803 23.0533C78.1546 23.9493 78.5433 25.1273 78.5433 26.5883ZM76.3156 26.6663C76.3156 25.7323 76.0992 24.9623 75.6664 24.3563C75.1936 23.7243 74.5608 23.4083 73.7638 23.4083C73.2233 23.4083 72.7341 23.5843 72.2951 23.9313C71.8562 24.2813 71.57 24.7383 71.4356 25.3043C71.369 25.5683 71.3341 25.7843 71.3341 25.9543V27.5543C71.3341 28.2523 71.5536 28.8413 71.9905 29.3223C72.4295 29.8023 72.9997 30.0433 73.7033 30.0433C74.5269 30.0433 75.1679 29.7333 75.6264 29.1153C76.0859 28.4963 76.3156 27.6803 76.3156 26.6663Z" fill="white"/>
  <path d="M91.2001 27.7721C91.2001 28.9041 90.797 29.8251 89.9878 30.5361C89.0986 31.3131 87.8606 31.7011 86.2699 31.7011C84.8011 31.7011 83.6237 31.4251 82.7324 30.8721L83.2391 29.0951C84.1991 29.6611 85.2524 29.9451 86.4001 29.9451C87.2237 29.9451 87.8647 29.7631 88.3252 29.4011C88.7837 29.0391 89.0124 28.5531 89.0124 27.9471C89.0124 27.4071 88.8237 26.9521 88.4452 26.5831C88.0688 26.2141 87.4401 25.8711 86.5622 25.5541C84.1724 24.6851 82.9786 23.4121 82.9786 21.7381C82.9786 20.6441 83.397 19.7471 84.235 19.0491C85.0699 18.3501 86.1837 18.0011 87.5765 18.0011C88.8186 18.0011 89.8504 18.2121 90.674 18.6331L90.1273 20.3711C89.3581 19.9631 88.4883 19.7591 87.515 19.7591C86.7458 19.7591 86.1447 19.9441 85.714 20.3121C85.3499 20.6411 85.1673 21.0421 85.1673 21.5171C85.1673 22.0431 85.3755 22.4781 85.794 22.8201C86.1581 23.1361 86.8196 23.4781 87.7796 23.8471C88.954 24.3081 89.8165 24.8471 90.3714 25.4651C90.9242 26.0811 91.2001 26.8521 91.2001 27.7721Z" fill="white"/>
  <path d="M98.4313 23.508H96.0211V28.167C96.0211 29.352 96.4457 29.944 97.297 29.944C97.6878 29.944 98.0119 29.911 98.2683 29.845L98.3288 31.464C97.898 31.621 97.3308 31.7 96.6283 31.7C95.7647 31.7 95.0898 31.443 94.6026 30.93C94.1175 30.416 93.8734 29.554 93.8734 28.343V23.506H92.4375V21.906H93.8734V20.149L96.0211 19.517V21.906H98.4313V23.508Z" fill="white"/>
  <path d="M109.306 26.627C109.306 28.102 108.873 29.313 108.01 30.26C107.104 31.235 105.902 31.721 104.403 31.721C102.959 31.721 101.81 31.254 100.952 30.32C100.095 29.386 99.666 28.207 99.666 26.786C99.666 25.299 100.107 24.081 100.992 23.134C101.875 22.186 103.067 21.712 104.566 21.712C106.01 21.712 107.172 22.179 108.049 23.114C108.888 24.021 109.306 25.192 109.306 26.627ZM107.037 26.696C107.037 25.811 106.843 25.052 106.451 24.419C105.992 23.653 105.337 23.271 104.488 23.271C103.609 23.271 102.941 23.654 102.482 24.419C102.09 25.053 101.896 25.824 101.896 26.736C101.896 27.621 102.09 28.38 102.482 29.012C102.955 29.778 103.616 30.16 104.468 30.16C105.303 30.16 105.958 29.77 106.431 28.992C106.834 28.347 107.037 27.58 107.037 26.696Z" fill="white"/>
  <path d="M116.414 23.7833C116.198 23.7443 115.967 23.7243 115.725 23.7243C114.956 23.7243 114.361 24.0073 113.942 24.5743C113.578 25.0743 113.396 25.7063 113.396 26.4693V31.5043H111.21L111.23 24.9303C111.23 23.8243 111.203 22.8173 111.148 21.9093H113.053L113.133 23.7453H113.194C113.424 23.1143 113.788 22.6063 114.287 22.2253C114.774 21.8823 115.3 21.7113 115.867 21.7113C116.069 21.7113 116.252 21.7253 116.414 21.7503V23.7833Z" fill="white"/>
  <path d="M126.192 26.2522C126.192 26.6342 126.166 26.9562 126.112 27.2192H119.552C119.578 28.1672 119.895 28.8922 120.504 29.3922C121.057 29.8392 121.771 30.0632 122.649 30.0632C123.621 30.0632 124.507 29.9122 125.304 29.6092L125.646 31.0892C124.715 31.4852 123.616 31.6822 122.347 31.6822C120.821 31.6822 119.623 31.2442 118.751 30.3692C117.881 29.4942 117.445 28.3192 117.445 26.8452C117.445 25.3982 117.85 24.1932 118.662 23.2322C119.511 22.2062 120.659 21.6932 122.103 21.6932C123.521 21.6932 124.595 22.2062 125.324 23.2322C125.902 24.0472 126.192 25.0552 126.192 26.2522ZM124.107 25.6992C124.121 25.0672 123.979 24.5212 123.682 24.0602C123.304 23.4672 122.722 23.1712 121.94 23.1712C121.225 23.1712 120.643 23.4602 120.199 24.0402C119.835 24.5012 119.619 25.0542 119.552 25.6982H124.107V25.6992Z" fill="white"/>
  <path d="M51.211 10.0088C51.211 11.1858 50.849 12.0718 50.1259 12.6668C49.4561 13.2158 48.5044 13.4908 47.2715 13.4908C46.6602 13.4908 46.1372 13.4648 45.6992 13.4128V6.98176C46.2705 6.89176 46.8859 6.84576 47.5505 6.84576C48.7249 6.84576 49.61 7.09476 50.2069 7.59276C50.8756 8.15576 51.211 8.96076 51.211 10.0088ZM50.0777 10.0378C50.0777 9.27476 49.8705 8.68976 49.4561 8.28176C49.0418 7.87476 48.4367 7.67076 47.6397 7.67076C47.3013 7.67076 47.0131 7.69276 46.7741 7.73876V12.6278C46.9064 12.6478 47.1485 12.6568 47.5002 12.6568C48.3228 12.6568 48.9577 12.4338 49.4049 11.9878C49.852 11.5418 50.0777 10.8918 50.0777 10.0378Z" fill="white"/>
  <path d="M57.2198 11.0367C57.2198 11.7617 57.0075 12.3557 56.5828 12.8217C56.1377 13.3007 55.548 13.5397 54.8116 13.5397C54.1018 13.5397 53.5367 13.3107 53.1151 12.8507C52.6946 12.3917 52.4844 11.8127 52.4844 11.1147C52.4844 10.3847 52.7008 9.78574 53.1357 9.32074C53.5705 8.85574 54.1551 8.62274 54.8916 8.62274C55.6013 8.62274 56.1716 8.85174 56.6034 9.31074C57.0136 9.75674 57.2198 10.3327 57.2198 11.0367ZM56.1049 11.0707C56.1049 10.6357 56.0085 10.2627 55.8167 9.95174C55.591 9.57574 55.27 9.38774 54.8526 9.38774C54.4208 9.38774 54.0926 9.57574 53.8669 9.95174C53.6741 10.2627 53.5787 10.6417 53.5787 11.0897C53.5787 11.5247 53.6751 11.8977 53.8669 12.2087C54.0998 12.5847 54.4239 12.7727 54.8423 12.7727C55.2526 12.7727 55.5746 12.5817 55.8064 12.1987C56.0054 11.8817 56.1049 11.5057 56.1049 11.0707Z" fill="white"/>
  <path d="M65.2786 8.71887L63.7657 13.4329H62.7811L62.1545 11.3859C61.9955 10.8749 61.8663 10.3669 61.7657 9.86287H61.7463C61.6529 10.3809 61.5237 10.8879 61.3575 11.3859L60.6919 13.4329H59.696L58.2734 8.71887H59.3781L59.9247 10.9599C60.057 11.4899 60.1657 11.9949 60.2529 12.4729H60.2724C60.3524 12.0789 60.4847 11.5769 60.6714 10.9699L61.3575 8.71987H62.2334L62.8909 10.9219C63.0498 11.4589 63.1791 11.9759 63.2786 12.4739H63.3083C63.3811 11.9889 63.4909 11.4719 63.6365 10.9219L64.2232 8.71987H65.2786V8.71887Z" fill="white"/>
  <path d="M70.8512 13.4328H69.7764V10.7328C69.7764 9.90075 69.4522 9.48475 68.802 9.48475C68.483 9.48475 68.2256 9.59875 68.0256 9.82775C67.8276 10.0568 67.7271 10.3268 67.7271 10.6358V13.4318H66.6522V10.0658C66.6522 9.65175 66.6389 9.20275 66.6133 8.71675H67.5579L67.6082 9.45375H67.6379C67.763 9.22475 67.9497 9.03575 68.1948 8.88475C68.4861 8.70875 68.8122 8.61975 69.1692 8.61975C69.6205 8.61975 69.9958 8.76175 70.2943 9.04675C70.6656 9.39575 70.8512 9.91675 70.8512 10.6088V13.4328Z" fill="white"/>
  <path d="M73.8141 13.4328H72.7402V6.55579H73.8141V13.4328Z" fill="white"/>
  <path d="M80.1416 11.0367C80.1416 11.7617 79.9293 12.3557 79.5047 12.8217C79.0596 13.3007 78.4688 13.5397 77.7334 13.5397C77.0227 13.5397 76.4575 13.3107 76.037 12.8507C75.6165 12.3917 75.4062 11.8127 75.4062 11.1147C75.4062 10.3847 75.6227 9.78574 76.0575 9.32074C76.4924 8.85574 77.077 8.62274 77.8124 8.62274C78.5232 8.62274 79.0924 8.85174 79.5252 9.31074C79.9355 9.75674 80.1416 10.3327 80.1416 11.0367ZM79.0257 11.0707C79.0257 10.6357 78.9293 10.2627 78.7375 9.95174C78.5129 9.57574 78.1909 9.38774 77.7745 9.38774C77.3416 9.38774 77.0134 9.57574 76.7888 9.95174C76.596 10.2627 76.5006 10.6417 76.5006 11.0897C76.5006 11.5247 76.597 11.8977 76.7888 12.2087C77.0216 12.5847 77.3457 12.7727 77.7642 12.7727C78.1745 12.7727 78.4955 12.5817 78.7273 12.1987C78.9273 11.8817 79.0257 11.5057 79.0257 11.0707Z" fill="white"/>
  <path d="M85.3442 13.4327H84.3791L84.2991 12.8897H84.2694C83.9391 13.3227 83.4683 13.5397 82.857 13.5397C82.4006 13.5397 82.0314 13.3967 81.7535 13.1127C81.5012 12.8547 81.375 12.5337 81.375 12.1527C81.375 11.5767 81.6212 11.1377 82.1165 10.8337C82.6109 10.5297 83.3063 10.3807 84.2017 10.3877V10.2997C84.2017 9.67874 83.8673 9.36874 83.1976 9.36874C82.7206 9.36874 82.3001 9.48574 81.9371 9.71774L81.7186 9.02974C82.1678 8.75874 82.7227 8.62274 83.3771 8.62274C84.6406 8.62274 85.2745 9.27274 85.2745 10.5727V12.3087C85.2745 12.7797 85.2981 13.1547 85.3442 13.4327ZM84.2283 11.8127V11.0857C83.0427 11.0657 82.4499 11.3827 82.4499 12.0357C82.4499 12.2817 82.5176 12.4657 82.656 12.5887C82.7945 12.7117 82.9709 12.7727 83.1812 12.7727C83.417 12.7727 83.6376 12.6997 83.8386 12.5547C84.0406 12.4087 84.1647 12.2237 84.2109 11.9967C84.2222 11.9457 84.2283 11.8837 84.2283 11.8127Z" fill="white"/>
  <path d="M91.4513 13.4328H90.4975L90.4472 12.6758H90.4175C90.1129 13.2518 89.5939 13.5398 88.8646 13.5398C88.2821 13.5398 87.797 13.3168 87.4123 12.8708C87.0277 12.4248 86.8359 11.8458 86.8359 11.1348C86.8359 10.3718 87.0441 9.75379 87.4626 9.28179C87.8677 8.84179 88.3641 8.62179 88.9549 8.62179C89.6041 8.62179 90.0585 8.83479 90.317 9.26179H90.3375V6.55579H91.4134V12.1628C91.4134 12.6218 91.4257 13.0448 91.4513 13.4328ZM90.3375 11.4448V10.6588C90.3375 10.5228 90.3272 10.4128 90.3077 10.3288C90.2472 10.0768 90.117 9.86479 89.919 9.69379C89.719 9.52279 89.478 9.43679 89.2 9.43679C88.799 9.43679 88.4852 9.59179 88.2544 9.90279C88.0257 10.2138 87.9098 10.6108 87.9098 11.0958C87.9098 11.5618 88.0195 11.9398 88.24 12.2308C88.4729 12.5408 88.7867 12.6958 89.1795 12.6958C89.5323 12.6958 89.8144 12.5668 90.0288 12.3078C90.2359 12.0688 90.3375 11.7808 90.3375 11.4448Z" fill="white"/>
  <path d="M100.646 11.0367C100.646 11.7617 100.433 12.3557 100.009 12.8217C99.5635 13.3007 98.9748 13.5397 98.2373 13.5397C97.5286 13.5397 96.9635 13.3107 96.5409 12.8507C96.1204 12.3917 95.9102 11.8127 95.9102 11.1147C95.9102 10.3847 96.1266 9.78574 96.5614 9.32074C96.9963 8.85574 97.5809 8.62274 98.3184 8.62274C99.0271 8.62274 99.5984 8.85174 100.029 9.31074C100.439 9.75674 100.646 10.3327 100.646 11.0367ZM99.5317 11.0707C99.5317 10.6357 99.4353 10.2627 99.2435 9.95174C99.0168 9.57574 98.6968 9.38774 98.2784 9.38774C97.8476 9.38774 97.5194 9.57574 97.2927 9.95174C97.0999 10.2627 97.0045 10.6417 97.0045 11.0897C97.0045 11.5247 97.1009 11.8977 97.2927 12.2087C97.5255 12.5847 97.8496 12.7727 98.2681 12.7727C98.6784 12.7727 99.0014 12.5817 99.2332 12.1987C99.4312 11.8817 99.5317 11.5057 99.5317 11.0707Z" fill="white"/>
  <path d="M106.424 13.4328H105.351V10.7328C105.351 9.90075 105.026 9.48475 104.375 9.48475C104.056 9.48475 103.799 9.59875 103.6 9.82775C103.401 10.0568 103.301 10.3268 103.301 10.6358V13.4318H102.225V10.0658C102.225 9.65175 102.213 9.20275 102.188 8.71675H103.131L103.181 9.45375H103.211C103.337 9.22475 103.524 9.03575 103.768 8.88475C104.06 8.70875 104.385 8.61975 104.743 8.61975C105.194 8.61975 105.569 8.76175 105.867 9.04675C106.24 9.39575 106.424 9.91675 106.424 10.6088V13.4328Z" fill="white"/>
  <path d="M113.659 9.50374H112.476V11.7937C112.476 12.3757 112.686 12.6667 113.103 12.6667C113.295 12.6667 113.455 12.6507 113.582 12.6177L113.609 13.4127C113.397 13.4907 113.118 13.5297 112.774 13.5297C112.35 13.5297 112.019 13.4037 111.78 13.1517C111.54 12.8997 111.422 12.4757 111.422 11.8807V9.50374H110.715V8.71874H111.422V7.85474L112.475 7.54474V8.71774H113.658V9.50374H113.659Z" fill="white"/>
  <path d="M119.347 13.4328H118.272V10.7528C118.272 9.90779 117.947 9.48479 117.298 9.48479C116.8 9.48479 116.459 9.72979 116.273 10.2198C116.241 10.3228 116.222 10.4488 116.222 10.5968V13.4318H115.148V6.55579H116.222V9.39679H116.243C116.581 8.87979 117.066 8.62179 117.695 8.62179C118.14 8.62179 118.508 8.76379 118.801 9.04879C119.165 9.40379 119.347 9.93179 119.347 10.6298V13.4328Z" fill="white"/>
  <path d="M125.218 10.8527C125.218 11.0407 125.204 11.1987 125.178 11.3277H121.955C121.969 11.7937 122.123 12.1487 122.421 12.3947C122.694 12.6147 123.046 12.7247 123.477 12.7247C123.954 12.7247 124.389 12.6507 124.78 12.5017L124.949 13.2297C124.49 13.4237 123.951 13.5207 123.326 13.5207C122.577 13.5207 121.988 13.3057 121.561 12.8757C121.132 12.4457 120.92 11.8687 120.92 11.1447C120.92 10.4337 121.118 9.84171 121.517 9.36971C121.933 8.86571 122.496 8.61371 123.207 8.61371C123.902 8.61371 124.431 8.86571 124.788 9.36971C125.076 9.76971 125.218 10.2647 125.218 10.8527ZM124.193 10.5817C124.201 10.2707 124.13 10.0027 123.985 9.77671C123.798 9.48571 123.514 9.33971 123.129 9.33971C122.778 9.33971 122.492 9.48171 122.274 9.76671C122.095 9.99371 121.99 10.2647 121.955 10.5817H124.193Z" fill="white"/>
</svg>