<svg width="90" height="40" viewBox="0 0 90 40" fill="none" xmlns="http://www.w3.org/2000/svg">
<path d="M3.16016 36.9612V30.041C4.02832 30.041 4.96787 30.0311 5.8358 30.041C7.22923 30.041 8.23625 31.0089 8.23625 32.3415C8.23625 33.6746 7.22923 34.6204 5.8358 34.6204H3.65388V36.961L3.16016 36.9612ZM5.8358 34.1568C6.90154 34.1568 7.74138 33.4268 7.74138 32.3307C7.74138 31.236 6.93309 30.4947 5.8358 30.4947H3.65388V34.1566H5.8358V34.1568Z" fill="#6D6E71"/>
<path d="M10.5747 37.0391C9.74475 37.0391 8.88672 36.606 8.88672 35.698C8.88672 34.6622 9.79472 34.1567 10.7527 34.1567C11.3438 34.1567 11.9483 34.2764 12.5012 34.5125V33.6835C12.5012 32.7566 11.6508 32.5468 10.8916 32.5468C10.3389 32.5468 9.7657 32.6755 9.3611 32.9143L9.25194 32.5185C9.69524 32.2707 10.3287 32.1235 10.9517 32.1235C11.9785 32.1235 12.9461 32.5086 12.9461 33.6924V35.8654C12.9461 36.4383 12.9146 36.7639 13.5465 36.6845L13.5663 37.0101C12.7564 37.1384 12.5404 36.8521 12.5687 36.1033C12.1943 36.7941 11.3643 37.0391 10.5747 37.0391ZM12.501 34.9182C11.9566 34.6407 11.3742 34.5323 10.8114 34.5426C10.1005 34.5426 9.35051 34.88 9.35051 35.6586C9.35051 36.3886 9.99069 36.6354 10.6525 36.6354C11.4242 36.6354 12.293 36.2909 12.5008 35.4704L12.501 34.9182Z" fill="#6D6E71"/>
<path d="M16.6848 32.1347C17.1488 32.1428 17.5645 32.271 17.8813 32.499L17.7116 32.9147C17.4065 32.6862 17.0125 32.5872 16.6249 32.5872C15.9157 32.5872 15.2331 33.0724 15.2331 33.8825V36.9612H14.7599V33.2988C14.7599 32.835 14.7491 32.5386 14.1471 32.6187L14.1289 32.1927C14.8872 32.0649 15.1949 32.3523 15.1949 32.9048C15.5099 32.3415 16.1335 32.1041 16.6848 32.1347Z" fill="#6D6E71"/>
<path d="M19.8019 32.203H21.6478V32.6078H19.8019V35.1745C19.8019 36.1603 20.1095 36.5679 20.7281 36.5769C21.0274 36.5769 21.3908 36.4982 21.8141 36.3494L21.8857 36.7542C21.4408 36.9113 21.035 36.9822 20.7 36.9822C19.8104 36.9822 19.3291 36.4385 19.3291 35.1844V32.6078L18.2422 32.5776V32.203H19.3291L19.368 30.752H19.8021L19.8019 32.203Z" fill="#6D6E71"/>
<path d="M27.6102 37.0391C26.3566 37.0391 25.1133 36.211 25.1133 34.5721C25.1133 32.9224 26.3672 32.1235 27.6204 32.1235C28.8731 32.1235 30.1088 32.9337 30.1088 34.5721C30.1088 36.2113 28.8549 37.0391 27.6102 37.0391ZM27.6102 36.6168C28.6172 36.6168 29.6358 35.9259 29.6358 34.5721C29.6358 33.2201 28.6271 32.5684 27.6204 32.5585C26.6034 32.5468 25.5874 33.2102 25.5874 34.5721C25.5874 35.9259 26.5951 36.6168 27.6102 36.6168Z" fill="#6D6E71"/>
<path d="M31.823 32.6185H30.707V32.2028H31.823V31.3439C31.823 29.637 33.1664 29.3992 34.4385 29.941L34.3404 30.326C33.3626 29.9028 32.2976 29.9627 32.2976 31.3547V32.2031H34.1343V32.6187H32.2976V36.9611H31.8227V32.6185H31.823Z" fill="#6D6E71"/>
<path d="M36.4844 30.505V30.0493H41.5179V30.505H39.2473V36.961H38.7543V30.505H36.4844Z" fill="#6D6E71"/>
<path d="M43.7478 32.1347C44.2118 32.1428 44.6272 32.271 44.9425 32.499L44.775 32.9147C44.4692 32.6862 44.0743 32.5872 43.6893 32.5872C42.9784 32.5872 42.2974 33.0724 42.2974 33.8825V36.9612H41.8233V33.2988C41.8233 32.835 41.8134 32.5386 41.2114 32.6187L41.1914 32.1927C41.9513 32.0649 42.2574 32.3523 42.2574 32.9048C42.5729 32.3415 43.1949 32.1041 43.7478 32.1347Z" fill="#6D6E71"/>
<path d="M47.094 37.0391C46.264 37.0391 45.4062 36.606 45.4062 35.698C45.4062 34.6622 46.3131 34.1567 47.2713 34.1567C47.8631 34.1567 48.4644 34.2764 49.0182 34.5125V33.6835C49.0182 32.7566 48.1685 32.5468 47.4092 32.5468C46.8566 32.5468 46.2827 32.6755 45.8788 32.9143L45.7706 32.5185C46.2145 32.2707 46.8464 32.1235 47.4684 32.1235C48.4962 32.1235 49.4638 32.5086 49.4638 33.6924V35.8654C49.4638 36.4383 49.4339 36.7639 50.0648 36.6845L50.084 37.0101C49.2759 37.1384 49.0581 36.8521 49.0864 36.1033C48.7138 36.7941 47.8838 37.0391 47.094 37.0391ZM49.0182 34.9182C48.4745 34.6407 47.894 34.5323 47.3303 34.5426C46.6185 34.5426 45.8684 34.88 45.8684 35.6586C45.8684 36.3886 46.5104 36.6354 47.1723 36.6354C47.9414 36.6354 48.81 36.2909 49.0182 35.4704V34.9182Z" fill="#6D6E71"/>
<path d="M54.8921 36.9611V34.0686C54.8921 33.1205 54.2602 32.5685 53.3423 32.5685C52.4037 32.5685 51.7227 33.1603 51.7227 34.148V36.9609H51.2495V33.4374C51.2495 32.6754 51.1689 32.5186 50.645 32.5968L50.6367 32.1835C51.3568 32.0746 51.6928 32.2316 51.6928 32.9927C52.1186 32.3806 52.7005 32.113 53.4505 32.1239C54.6528 32.1239 55.3662 32.9227 55.3662 34.0686V36.9611H54.8921Z" fill="#6D6E71"/>
<path d="M57.0095 35.6381C57.091 36.3299 57.8708 36.646 58.6408 36.646C59.4208 36.646 60.2212 36.36 60.2212 35.6782C60.2212 34.7985 59.2826 34.7985 58.6507 34.7202C57.7013 34.6122 56.6869 34.4446 56.6869 33.4659C56.6869 32.4796 57.6338 32.1238 58.6125 32.1238C59.5986 32.1238 60.5358 32.5295 60.5358 33.3767H60.1008C60.1008 32.7849 59.3609 32.5185 58.6192 32.5185C57.8991 32.5185 57.0701 32.7847 57.1191 33.4562C57.1191 34.188 58.1568 34.2456 58.7078 34.325C59.7056 34.4623 60.7041 34.5521 60.6735 35.6779C60.6735 36.6274 59.7056 37.0389 58.6298 37.0389C57.6227 37.0389 56.6551 36.6458 56.5469 35.6379H57.0095V35.6381Z" fill="#6D6E71"/>
<path d="M61.9453 34.5925V30.0493H62.4406V34.5822C62.4406 35.8554 63.2989 36.5769 64.5436 36.5769C65.7765 36.5769 66.6253 35.8554 66.6253 34.5822V30.0493H67.1094V34.5925C67.1094 36.1322 66.0535 37.0393 64.5436 37.0393C63.0237 37.0393 61.9453 36.1322 61.9453 34.5925Z" fill="#6D6E71"/>
<path d="M72.5488 36.9611V34.0686C72.5488 33.1205 71.9162 32.5685 70.9983 32.5685C70.0604 32.5685 69.3804 33.1603 69.3804 34.148V36.9609H68.9048V33.4374C68.9048 32.6754 68.8275 32.5186 68.3029 32.5968L68.293 32.1835C69.0147 32.0746 69.3497 32.2316 69.3497 32.9927C69.7739 32.3806 70.3565 32.113 71.1066 32.1239C72.3121 32.1239 73.0223 32.9227 73.0223 34.0686V36.9611H72.5488Z" fill="#6D6E71"/>
<path d="M74.836 30.1976C74.9946 30.2085 75.1528 30.3181 75.1528 30.5341C75.1528 30.7522 75.0048 30.8592 74.8452 30.871C74.6787 30.8795 74.5 30.7611 74.5 30.5341C74.5 30.3072 74.6679 30.1898 74.836 30.1976ZM75.0529 36.9612H74.5905V32.2032H75.0529V36.9612Z" fill="#6D6E71"/>
<path d="M78.8667 37.0391C77.6093 37.0391 76.3672 36.211 76.3672 34.5721C76.3672 32.9224 77.6202 32.1235 78.874 32.1235C80.1286 32.1235 81.3627 32.9337 81.3627 34.5721C81.3627 36.2113 80.1072 37.0391 78.8667 37.0391ZM78.8667 36.6168C79.87 36.6168 80.8878 35.9259 80.8878 34.5721C80.8878 33.2201 79.8808 32.5684 78.874 32.5585C77.858 32.5468 76.8411 33.2102 76.8411 34.5721C76.8411 35.9259 77.8472 36.6168 78.8667 36.6168Z" fill="#6D6E71"/>
<path d="M86.4266 36.9611V34.0686C86.4266 33.1205 85.7954 32.5685 84.8775 32.5685C83.9379 32.5685 83.2577 33.1603 83.2577 34.148V36.9609H82.7837V33.4374C82.7837 32.6754 82.7038 32.5186 82.1802 32.5968L82.1719 32.1835C82.892 32.0746 83.2277 32.2316 83.2277 32.9927C83.6519 32.3806 84.2338 32.113 84.9855 32.1239C86.1896 32.1239 86.8996 32.9227 86.8996 34.0686V36.9611H86.4266Z" fill="#6D6E71"/>
<path d="M14.8532 2.96021C19.3978 2.96021 24.108 5.48064 25.3354 10.7225H21.6212C20.4587 7.83849 17.8729 6.50907 14.8207 6.47614C10.0771 6.47614 6.92252 9.92553 6.92252 14.8704C6.92252 19.4794 10.0771 23.1598 14.8207 23.1598C18.006 23.1598 20.6915 21.6022 21.7193 18.5164H25.4692C24.3076 24.1908 19.5309 26.6783 14.8207 26.6783C8.51745 26.6783 3.04297 22.3331 3.04297 14.8704C3.04297 7.37148 8.51745 2.96021 14.8532 2.96021Z" fill="#00A2D1"/>
<path d="M37.6058 23.3293V26.4461H26.3945V23.3293H30.077V6.3117H26.6923V3.22339H37.308V6.3117H33.9243V23.3293H37.6058Z" fill="#00A2D1"/>
<path d="M54.0891 14.2391C56.5128 15.0685 57.8381 16.9925 57.8381 19.6124C57.8381 23.7605 54.9854 26.4465 50.4732 26.4465H40.0898V3.22607H49.5111C53.7241 3.22607 56.8074 5.38243 56.8074 9.76169C56.8074 11.7177 55.9143 13.3428 54.0891 14.2391ZM43.9388 6.57506V12.978H49.2461C51.4692 12.978 52.9941 12.1159 53.0291 9.85887C53.0291 7.57034 51.5017 6.57506 49.2461 6.57506H43.9388ZM43.9388 16.1274V23.0618H50.2436C52.3979 23.0618 53.9222 21.8363 54.0235 19.6124C54.0235 18.4518 53.6253 17.5217 52.8295 16.8613C51.9316 16.1965 50.8739 16.1274 49.8096 16.1274H43.9388Z" fill="#00A2D1"/>
<path d="M70.6058 23.3293V26.4461H59.3945V23.3293H63.0763V6.3117H59.6937V3.22339H70.3083V6.3117H66.9243V23.3293H70.6058Z" fill="#00A2D1"/>
<path d="M76.9747 22.962H86.9599V26.4461H73.0938V3.22339H76.9747V22.962Z" fill="#00A2D1"/>
</svg>
