<svg width="90" height="40" viewBox="0 0 90 40" fill="none" xmlns="http://www.w3.org/2000/svg">
<path d="M3.16406 36.9611V30.0409C4.03222 30.0409 4.97177 30.031 5.8397 30.0409C7.23314 30.0409 8.24016 31.0088 8.24016 32.3414C8.24016 33.6745 7.23314 34.6203 5.8397 34.6203H3.65779V36.9609L3.16406 36.9611ZM5.8397 34.1567C6.90545 34.1567 7.74528 33.4267 7.74528 32.3306C7.74528 31.2358 6.937 30.4946 5.8397 30.4946H3.65779V34.1565H5.8397V34.1567Z" fill="#6D6E71"/>
<path d="M10.5786 37.0392C9.74865 37.0392 8.89062 36.6061 8.89062 35.6981C8.89062 34.6623 9.79863 34.1568 10.7566 34.1568C11.3477 34.1568 11.9522 34.2766 12.5051 34.5126V33.6836C12.5051 32.7567 11.6547 32.5469 10.8955 32.5469C10.3428 32.5469 9.76961 32.6756 9.36501 32.9144L9.25585 32.5186C9.69914 32.2708 10.3326 32.1237 10.9556 32.1237C11.9824 32.1237 12.95 32.5087 12.95 33.6926V35.8655C12.95 36.4384 12.9185 36.7641 13.5504 36.6846L13.5702 37.0102C12.7603 37.1385 12.5443 36.8523 12.5726 36.1034C12.1982 36.7942 11.3682 37.0392 10.5786 37.0392ZM12.5049 34.9184C11.9605 34.6409 11.3781 34.5324 10.8153 34.5428C10.1044 34.5428 9.35441 34.8801 9.35441 35.6587C9.35441 36.3887 9.99459 36.6356 10.6564 36.6356C11.4281 36.6356 12.2969 36.2911 12.5047 35.4706L12.5049 34.9184Z" fill="#6D6E71"/>
<path d="M16.6887 32.1347C17.1527 32.1428 17.5684 32.271 17.8852 32.499L17.7155 32.9147C17.4104 32.6862 17.0164 32.5872 16.6288 32.5872C15.9196 32.5872 15.237 33.0724 15.237 33.8825V36.9612H14.7638V33.2988C14.7638 32.835 14.753 32.5386 14.151 32.6187L14.1328 32.1927C14.8911 32.0649 15.1988 32.3523 15.1988 32.9048C15.5138 32.3415 16.1374 32.1041 16.6887 32.1347Z" fill="#6D6E71"/>
<path d="M19.8097 32.2031H21.6556V32.6079H19.8097V35.1746C19.8097 36.1605 20.1174 36.5681 20.7359 36.577C21.0353 36.577 21.3986 36.4983 21.8219 36.3495L21.8935 36.7544C21.4486 36.9114 21.0429 36.9823 20.7078 36.9823C19.8182 36.9823 19.3369 36.4386 19.3369 35.1845V32.6079L18.25 32.5777V32.2031H19.3369L19.3758 30.7521H19.8099L19.8097 32.2031Z" fill="#6D6E71"/>
<path d="M27.6141 37.0392C26.3605 37.0392 25.1172 36.2112 25.1172 34.5722C25.1172 32.9225 26.3711 32.1237 27.6243 32.1237C28.877 32.1237 30.1127 32.9338 30.1127 34.5722C30.1127 36.2114 28.8588 37.0392 27.6141 37.0392ZM27.6141 36.6169C28.6212 36.6169 29.6397 35.9261 29.6397 34.5722C29.6397 33.2203 28.6311 32.5686 27.6243 32.5587C26.6073 32.5469 25.5913 33.2104 25.5913 34.5722C25.5913 35.9261 26.599 36.6169 27.6141 36.6169Z" fill="#6D6E71"/>
<path d="M31.8269 32.6185H30.7109V32.2028H31.8269V31.3439C31.8269 29.637 33.1703 29.3992 34.4424 29.941L34.3443 30.326C33.3665 29.9028 32.3015 29.9627 32.3015 31.3547V32.2031H34.1382V32.6187H32.3015V36.9611H31.8266V32.6185H31.8269Z" fill="#6D6E71"/>
<path d="M36.4844 30.505V30.0493H41.5179V30.505H39.2473V36.961H38.7543V30.505H36.4844Z" fill="#6D6E71"/>
<path d="M43.7517 32.1347C44.2157 32.1428 44.6311 32.271 44.9464 32.499L44.779 32.9147C44.4731 32.6862 44.0782 32.5872 43.6932 32.5872C42.9823 32.5872 42.3014 33.0724 42.3014 33.8825V36.9612H41.8272V33.2988C41.8272 32.835 41.8173 32.5386 41.2153 32.6187L41.1953 32.1927C41.9552 32.0649 42.2613 32.3523 42.2613 32.9048C42.5768 32.3415 43.1988 32.1041 43.7517 32.1347Z" fill="#6D6E71"/>
<path d="M47.094 37.0392C46.264 37.0392 45.4062 36.6061 45.4062 35.6981C45.4062 34.6623 46.3131 34.1568 47.2713 34.1568C47.8631 34.1568 48.4644 34.2766 49.0182 34.5126V33.6836C49.0182 32.7567 48.1685 32.5469 47.4092 32.5469C46.8566 32.5469 46.2827 32.6756 45.8788 32.9144L45.7706 32.5186C46.2145 32.2708 46.8464 32.1237 47.4684 32.1237C48.4962 32.1237 49.4638 32.5087 49.4638 33.6926V35.8655C49.4638 36.4384 49.4339 36.7641 50.0648 36.6846L50.084 37.0102C49.2759 37.1385 49.0581 36.8523 49.0864 36.1034C48.7138 36.7942 47.8838 37.0392 47.094 37.0392ZM49.0182 34.9184C48.4745 34.6409 47.894 34.5324 47.3303 34.5428C46.6185 34.5428 45.8684 34.8801 45.8684 35.6587C45.8684 36.3887 46.5104 36.6356 47.1723 36.6356C47.9414 36.6356 48.81 36.2911 49.0182 35.4706V34.9184Z" fill="#6D6E71"/>
<path d="M54.896 36.9611V34.0686C54.896 33.1205 54.2641 32.5685 53.3462 32.5685C52.4076 32.5685 51.7266 33.1603 51.7266 34.148V36.9609H51.2534V33.4374C51.2534 32.6754 51.1728 32.5186 50.6489 32.5968L50.6406 32.1835C51.3607 32.0746 51.6967 32.2316 51.6967 32.9927C52.1225 32.3806 52.7044 32.113 53.4544 32.1239C54.6567 32.1239 55.3701 32.9227 55.3701 34.0686V36.9611H54.896Z" fill="#6D6E71"/>
<path d="M57.0095 35.6381C57.091 36.3299 57.8708 36.646 58.6408 36.646C59.4208 36.646 60.2212 36.36 60.2212 35.6782C60.2212 34.7985 59.2826 34.7985 58.6507 34.7202C57.7013 34.6122 56.6869 34.4446 56.6869 33.4659C56.6869 32.4796 57.6338 32.1238 58.6125 32.1238C59.5986 32.1238 60.5358 32.5295 60.5358 33.3767H60.1008C60.1008 32.7849 59.3609 32.5185 58.6192 32.5185C57.8991 32.5185 57.0701 32.7847 57.1191 33.4562C57.1191 34.188 58.1568 34.2456 58.7078 34.325C59.7056 34.4623 60.7041 34.5521 60.6735 35.6779C60.6735 36.6274 59.7056 37.0389 58.6298 37.0389C57.6227 37.0389 56.6551 36.6458 56.5469 35.6379H57.0095V35.6381Z" fill="#6D6E71"/>
<path d="M61.9531 34.5925V30.0493H62.4485V34.5822C62.4485 35.8554 63.3067 36.5769 64.5514 36.5769C65.7843 36.5769 66.6331 35.8554 66.6331 34.5822V30.0493H67.1172V34.5925C67.1172 36.1322 66.0614 37.0393 64.5514 37.0393C63.0315 37.0393 61.9531 36.1322 61.9531 34.5925Z" fill="#6D6E71"/>
<path d="M72.5527 36.9611V34.0686C72.5527 33.1205 71.9201 32.5685 71.0022 32.5685C70.0643 32.5685 69.3843 33.1603 69.3843 34.148V36.9609H68.9087V33.4374C68.9087 32.6754 68.8314 32.5186 68.3068 32.5968L68.2969 32.1835C69.0186 32.0746 69.3536 32.2316 69.3536 32.9927C69.7778 32.3806 70.3604 32.113 71.1105 32.1239C72.316 32.1239 73.0262 32.9227 73.0262 34.0686V36.9611H72.5527Z" fill="#6D6E71"/>
<path d="M74.836 30.1975C74.9946 30.2083 75.1528 30.3179 75.1528 30.534C75.1528 30.752 75.0048 30.8591 74.8452 30.8709C74.6787 30.8794 74.5 30.761 74.5 30.534C74.5 30.3071 74.6679 30.1897 74.836 30.1975ZM75.0529 36.9611H74.5905V32.203H75.0529V36.9611Z" fill="#6D6E71"/>
<path d="M78.8745 37.0392C77.6171 37.0392 76.375 36.2112 76.375 34.5722C76.375 32.9225 77.628 32.1237 78.8818 32.1237C80.1364 32.1237 81.3705 32.9338 81.3705 34.5722C81.3705 36.2114 80.115 37.0392 78.8745 37.0392ZM78.8745 36.6169C79.8778 36.6169 80.8957 35.9261 80.8957 34.5722C80.8957 33.2203 79.8886 32.5686 78.8818 32.5587C77.8658 32.5469 76.8489 33.2104 76.8489 34.5722C76.8489 35.9261 77.855 36.6169 78.8745 36.6169Z" fill="#6D6E71"/>
<path d="M86.4344 36.9611V34.0686C86.4344 33.1205 85.8032 32.5685 84.8853 32.5685C83.9457 32.5685 83.2655 33.1603 83.2655 34.148V36.9609H82.7915V33.4374C82.7915 32.6754 82.7116 32.5186 82.188 32.5968L82.1797 32.1835C82.8998 32.0746 83.2355 32.2316 83.2355 32.9927C83.6597 32.3806 84.2416 32.113 84.9933 32.1239C86.1974 32.1239 86.9074 32.9227 86.9074 34.0686V36.9611H86.4344Z" fill="#6D6E71"/>
<path d="M14.8571 2.96033C19.4017 2.96033 24.1119 5.48076 25.3393 10.7227H21.6251C20.4626 7.83861 17.8768 6.5092 14.8246 6.47626C10.0811 6.47626 6.92643 9.92565 6.92643 14.8705C6.92643 19.4796 10.0811 23.1599 14.8246 23.1599C18.0099 23.1599 20.6954 21.6023 21.7232 18.5165H25.4731C24.3115 24.1909 19.5348 26.6784 14.8246 26.6784C8.52136 26.6784 3.04688 22.3332 3.04688 14.8705C3.04688 7.3716 8.52136 2.96033 14.8571 2.96033Z" fill="#00A2D1"/>
<path d="M37.6097 23.3294V26.4463H26.3984V23.3294H30.0809V6.31182H26.6962V3.22351H37.3119V6.31182H33.9282V23.3294H37.6097Z" fill="#00A2D1"/>
<path d="M54.093 14.2391C56.5167 15.0685 57.842 16.9925 57.842 19.6124C57.842 23.7605 54.9893 26.4465 50.4771 26.4465H40.0938V3.22607H49.515C53.728 3.22607 56.8113 5.38243 56.8113 9.76169C56.8113 11.7177 55.9182 13.3428 54.093 14.2391ZM43.9427 6.57506V12.978H49.25C51.4731 12.978 52.998 12.1159 53.033 9.85887C53.033 7.57034 51.5056 6.57506 49.25 6.57506H43.9427ZM43.9427 16.1274V23.0618H50.2476C52.4018 23.0618 53.9261 21.8363 54.0274 19.6124C54.0274 18.4518 53.6292 17.5217 52.8334 16.8613C51.9355 16.1965 50.8778 16.1274 49.8135 16.1274H43.9427Z" fill="#00A2D1"/>
<path d="M70.6097 23.3294V26.4463H59.3984V23.3294H63.0802V6.31182H59.6976V3.22351H70.3122V6.31182H66.9282V23.3294H70.6097Z" fill="#00A2D1"/>
<path d="M76.9747 22.9621H86.9599V26.4463H73.0938V3.22351H76.9747V22.9621Z" fill="#00A2D1"/>
</svg>
