<svg xmlns="http://www.w3.org/2000/svg" width="220" height="60" viewBox="0 0 220 60" fill="none">
  <path d="M22.2934 33.7882C21.9014 33.5015 21.4639 33.2827 20.9993 33.1412C20.5237 32.9926 20.0266 32.925 19.5287 32.9412C19.1564 32.9441 18.7856 32.9875 18.4228 33.0706C18.0621 33.1482 17.7138 33.2748 17.3875 33.4471C17.0749 33.6104 16.7892 33.8206 16.5404 34.0706C16.296 34.3157 16.1109 34.6135 15.9993 34.9412C15.9917 34.515 15.8473 34.1026 15.5875 33.7647C15.3524 33.476 15.0434 33.2564 14.6934 33.1294C14.3161 32.9937 13.9178 32.926 13.5169 32.9294C13.0695 32.932 12.6238 32.9833 12.1875 33.0824V34.9294C12.44 34.9057 12.6947 34.9256 12.9404 34.9882C13.1013 35.0291 13.2403 35.1302 13.3287 35.2706C13.4116 35.4229 13.4598 35.5916 13.4699 35.7647C13.4699 35.9647 13.4699 36.2 13.4699 36.4588V45.1765H16.164V38.2471C16.1715 37.81 16.276 37.38 16.4699 36.9882C16.6233 36.6469 16.8527 36.3451 17.1404 36.1059C17.431 35.8649 17.7671 35.6848 18.1287 35.5765C18.5093 35.457 18.9062 35.3975 19.3051 35.4C19.9795 35.3967 20.6449 35.554 21.2463 35.8588L22.2934 33.7882Z" fill="#00A6CA"/>
  <path d="M34.1885 43.2588C34.0246 43.2041 33.8864 43.091 33.8003 42.9412C33.7086 42.7713 33.6601 42.5813 33.6591 42.3882C33.6591 42.1765 33.6591 41.9294 33.6591 41.6471V34.0353C32.882 33.6907 32.0746 33.4189 31.2473 33.2235C30.4218 33.0327 29.577 32.9379 28.7297 32.9412C27.8103 32.9146 26.8937 33.0541 26.0238 33.3529C25.2358 33.6309 24.5146 34.0708 23.9068 34.6442C23.2989 35.2176 22.8178 35.9119 22.4944 36.6824C22.1357 37.5352 21.9516 38.4513 21.9532 39.3765C21.9493 40.1734 22.0643 40.9664 22.2944 41.7294C22.5021 42.429 22.8459 43.0807 23.3062 43.6471C23.7444 44.1985 24.304 44.6414 24.9415 44.9412C25.685 45.2573 26.4866 45.4136 27.2944 45.4C28.1818 45.407 29.0536 45.1666 29.812 44.7059C30.5684 44.2703 31.1536 43.5896 31.4709 42.7765C31.4429 43.2875 31.544 43.7972 31.765 44.2588C31.9463 44.599 32.2248 44.8775 32.565 45.0588C32.9294 45.2431 33.3332 45.336 33.7415 45.3294C34.1675 45.3391 34.5934 45.3036 35.012 45.2235V43.3059C34.7378 43.3573 34.4551 43.3412 34.1885 43.2588ZM31.0356 39.1529C31.0436 40.1342 30.7523 41.0946 30.2003 41.9059C29.9329 42.2719 29.5763 42.5635 29.1645 42.7529C28.7527 42.9424 28.2993 43.0234 27.8473 42.9882C27.3855 43.0247 26.9215 42.9545 26.4911 42.7832C26.0607 42.6119 25.6754 42.3439 25.365 42C24.7933 41.2487 24.5057 40.3194 24.5532 39.3765C24.5852 38.7824 24.7164 38.1978 24.9415 37.6471C25.125 37.1528 25.4004 36.6977 25.7532 36.3059C26.08 35.9394 26.481 35.6466 26.9297 35.4471C27.4257 35.2433 27.9582 35.1432 28.4944 35.1529C28.8891 35.1602 29.2825 35.1996 29.6709 35.2706C30.1129 35.3455 30.5438 35.476 30.9532 35.6588L31.0356 39.1529Z" fill="#00A6CA"/>
  <path d="M47.152 34.4235C46.7453 33.9561 46.2387 33.5862 45.6696 33.3412C44.9921 33.0585 44.2624 32.9222 43.5285 32.9412C43.1336 32.9451 42.7398 32.9844 42.352 33.0588C41.9479 33.132 41.5532 33.2504 41.1755 33.4118C40.8052 33.5657 40.4633 33.7804 40.1638 34.0471C39.8643 34.3137 39.6273 34.6431 39.4696 35.0118C39.4962 34.5498 39.3724 34.0916 39.1167 33.7059C38.8991 33.4067 38.589 33.1875 38.2344 33.0824C37.8523 32.9733 37.4545 32.9295 37.0579 32.9529C36.6153 32.9764 36.175 33.0314 35.7402 33.1176V34.9882C35.9744 34.9563 36.2119 34.9563 36.4461 34.9882C36.6027 35.0169 36.742 35.1056 36.8344 35.2353C36.9312 35.3952 36.9839 35.5778 36.9873 35.7647C36.9873 35.9882 36.9873 36.2824 36.9873 36.6235V45.1765H39.7285V38.3529C39.7221 37.9027 39.802 37.4555 39.9638 37.0353C40.1082 36.654 40.3283 36.3058 40.6108 36.0118C40.8806 35.7299 41.2048 35.5058 41.5638 35.3529C41.9359 35.1955 42.3362 35.1154 42.7402 35.1176C43.4991 35.1098 44.2304 35.4014 44.7755 35.9294C45.0551 36.2195 45.2699 36.5656 45.4058 36.9448C45.5417 37.3241 45.5955 37.7278 45.5638 38.1294V45.1882H48.3049V38.1294C48.3141 37.429 48.2189 36.7312 48.0226 36.0588C47.8491 35.4592 47.5526 34.9023 47.152 34.4235Z" fill="#00A6CA"/>
  <path d="M59.2703 38.9176C58.7607 38.6536 58.2129 38.4709 57.6468 38.3765C57.0468 38.2588 56.4703 38.1647 55.7997 38.0706C55.0924 38.0044 54.3943 37.8624 53.7174 37.647C53.5023 37.5806 53.3148 37.4459 53.1832 37.2633C53.0516 37.0808 52.983 36.8603 52.988 36.6353C52.9707 36.3873 53.0325 36.1401 53.1644 35.9294C53.3057 35.7087 53.4998 35.5268 53.7291 35.4C53.982 35.2508 54.2555 35.1397 54.5409 35.0706C54.8407 34.9934 55.149 34.9539 55.4585 34.9529C55.7814 34.9525 56.1039 34.9761 56.4233 35.0235C56.7248 35.0656 57.0183 35.1529 57.2938 35.2823C57.5371 35.3968 57.7535 35.5612 57.9291 35.7647C58.0961 35.9796 58.1834 36.2456 58.1762 36.5176H60.5291C60.5561 35.9708 60.4254 35.4277 60.1527 34.9529C59.8839 34.4777 59.5045 34.0741 59.0468 33.7765C58.5409 33.4563 57.9838 33.2255 57.3997 33.0941C56.7568 32.9679 56.1015 32.9166 55.4468 32.9412C54.8087 32.9395 54.1728 33.0146 53.5527 33.1647C52.9711 33.2985 52.4176 33.5334 51.9174 33.8588C51.4443 34.1608 51.0428 34.5622 50.7409 35.0353C50.439 35.5391 50.288 36.1188 50.3056 36.7059C50.2866 37.2886 50.4648 37.8607 50.8115 38.3294C51.1467 38.7346 51.5744 39.0534 52.0585 39.2588C52.6001 39.492 53.1695 39.6541 53.7527 39.7412L55.6468 40C56.3125 40.0665 56.9657 40.2249 57.588 40.4706C57.8227 40.5605 58.0224 40.7233 58.1579 40.935C58.2934 41.1467 58.3575 41.3962 58.3409 41.6471C58.3377 41.9702 58.2395 42.2852 58.0585 42.5529C57.8857 42.7942 57.6552 42.9884 57.388 43.1176C57.1001 43.2521 56.7954 43.3471 56.4821 43.4C56.1519 43.4572 55.8172 43.4848 55.4821 43.4823C55.1536 43.4845 54.826 43.449 54.5056 43.3765C54.2043 43.3049 53.915 43.19 53.6468 43.0353C53.398 42.8933 53.1817 42.701 53.0115 42.4706C52.8415 42.2335 52.7472 41.9505 52.7409 41.6588H50.0703C50.0719 42.3175 50.2507 42.9636 50.588 43.5294C50.9148 44.0104 51.3448 44.4123 51.8468 44.7059C52.3776 45.0144 52.9593 45.2255 53.5644 45.3294C54.2087 45.4473 54.8624 45.5063 55.5174 45.5059C56.1709 45.507 56.8224 45.432 57.4585 45.2823C58.0499 45.1509 58.6148 44.9201 59.1291 44.6C59.6062 44.3031 60.0087 43.9006 60.3056 43.4235C60.613 42.9043 60.7679 42.309 60.7527 41.7059C60.7966 41.1141 60.67 40.5221 60.388 40C60.1158 39.5482 59.7306 39.1752 59.2703 38.9176Z" fill="#00A6CA"/>
  <path d="M89.6595 34.4235C89.27 33.9628 88.784 33.5933 88.236 33.3412C87.5657 33.0618 86.8443 32.9255 86.1183 32.9412C85.7234 32.945 85.3297 32.9844 84.9418 33.0588C84.5376 33.1316 84.1429 33.2501 83.7654 33.4118C83.3951 33.5657 83.0531 33.7804 82.7536 34.0471C82.4545 34.314 82.2175 34.6433 82.0595 35.0118C82.0869 34.5497 81.963 34.0913 81.7065 33.7059C81.489 33.4067 81.1789 33.1875 80.8242 33.0824C80.4421 32.9733 80.0444 32.9296 79.6477 32.9529C79.2051 32.9763 78.7648 33.0313 78.3301 33.1177V34.9882C78.5642 34.9551 78.8018 34.9551 79.036 34.9882C79.1926 35.0169 79.3319 35.1056 79.4242 35.2353C79.5195 35.3958 79.5722 35.5781 79.5771 35.7647C79.5771 35.9882 79.5771 36.2824 79.5771 36.6235V45.1765H82.3183V38.3529C82.312 37.9027 82.3918 37.4555 82.5536 37.0353C82.6989 36.6544 82.9189 36.3064 83.2007 36.0118C83.4709 35.7304 83.795 35.5064 84.1536 35.3529C84.5257 35.1955 84.926 35.1154 85.3301 35.1177C86.0849 35.1129 86.8114 35.4043 87.3536 35.9294C87.6332 36.2195 87.848 36.5656 87.9839 36.9448C88.1197 37.3241 88.1736 37.7278 88.1418 38.1294V45.1882H90.883V38.1294C90.8922 37.429 90.797 36.7312 90.6007 36.0588C90.4072 35.4528 90.0863 34.8953 89.6595 34.4235Z" fill="#00A6CA"/>
  <path d="M94.4467 27.8588C94.0196 27.8493 93.6029 27.991 93.2702 28.2588C93.0998 28.4018 92.9653 28.5827 92.8775 28.787C92.7896 28.9913 92.7509 29.2133 92.7643 29.4353C92.7559 29.6578 92.7981 29.8793 92.8878 30.0831C92.9775 30.2869 93.1123 30.4676 93.282 30.6118C93.6116 30.884 94.0315 31.0226 94.4584 31C94.8593 30.9806 95.2431 30.8321 95.5526 30.5765C95.8601 30.2621 96.0323 29.8398 96.0323 29.4C96.0323 28.9602 95.8601 28.5379 95.5526 28.2235C95.2358 27.9803 94.8459 27.8518 94.4467 27.8588Z" fill="#00A6CA"/>
  <path d="M95.7997 33.1647H93.082V45.1647H95.7997V33.1647Z" fill="#00A6CA"/>
  <path d="M108.436 34.4471C107.832 33.92 107.127 33.5199 106.365 33.2706C105.583 33.0371 104.77 32.926 103.953 32.9412C103.172 32.9415 102.397 33.0727 101.659 33.3294C100.925 33.5863 100.25 33.9862 99.6711 34.5059C99.0663 35.0531 98.585 35.7229 98.2593 36.4706C97.8836 37.3222 97.6989 38.2458 97.7182 39.1765C97.6995 40.1235 97.8882 41.0631 98.2711 41.9294C98.6074 42.6772 99.0963 43.3464 99.7064 43.8941C100.292 44.4165 100.976 44.8165 101.718 45.0706C103.243 45.5959 104.899 45.5959 106.424 45.0706C107.169 44.8148 107.857 44.4151 108.448 43.8941C109.062 43.3476 109.555 42.6783 109.895 41.9294C110.617 40.1693 110.617 38.1954 109.895 36.4353C109.567 35.6698 109.068 34.9896 108.436 34.4471ZM107.377 40.8118C107.185 41.2526 106.909 41.6521 106.565 41.9882C106.229 42.312 105.828 42.5606 105.389 42.7177C104.969 42.8815 104.522 42.9653 104.071 42.9647C103.61 42.9656 103.152 42.886 102.718 42.7294C102.281 42.5727 101.881 42.3285 101.542 42.0118C101.185 41.6813 100.901 41.2808 100.706 40.8353C100.486 40.2939 100.378 39.7137 100.389 39.1294C100.375 38.5624 100.475 37.9983 100.683 37.4706C100.861 37.025 101.134 36.6236 101.483 36.2941C101.824 35.9856 102.224 35.7494 102.659 35.6C103.072 35.4309 103.509 35.3277 103.953 35.2941C104.417 35.2788 104.879 35.3465 105.318 35.4941C105.755 35.6401 106.156 35.8766 106.495 36.1882C106.855 36.5176 107.144 36.9182 107.342 37.3647C107.571 37.8995 107.683 38.4771 107.671 39.0588C107.698 39.6574 107.598 40.2548 107.377 40.8118Z" fill="#00A6CA"/>
  <path d="M0.517578 30.3059V27.7412H13.4588V30.3059H8.39993V45.1765H5.5764V30.3059H0.517578Z" fill="#00A6CA"/>
  <path d="M62.8594 39.3176V27.7412H65.7417V39.2471C65.7417 41.5412 67.4594 42.7765 69.6711 42.7765C70.1634 42.826 70.6606 42.7714 71.1304 42.6163C71.6002 42.4612 72.0322 42.2091 72.3983 41.8763C72.7643 41.5435 73.0564 41.1375 73.2554 40.6845C73.4544 40.2315 73.556 39.7418 73.5535 39.2471V27.7412H76.4711V39.3294C76.4711 43.2118 73.4358 45.4 69.7182 45.4C66.0006 45.4 62.8594 43.2 62.8594 39.3176Z" fill="#00A6CA"/>
  <path d="M123.86 42.3529V40.4706V38.1176C123.867 37.4173 123.772 36.7197 123.577 36.0471C123.403 35.4475 123.107 34.8907 122.707 34.4118C122.3 33.9443 121.793 33.5744 121.224 33.3294C120.554 33.05 119.833 32.9137 119.107 32.9294C118.712 32.933 118.318 32.9724 117.93 33.0471C117.526 33.1202 117.131 33.2386 116.754 33.4C116.383 33.5527 116.041 33.7676 115.742 34.0353C115.443 34.3027 115.206 34.6319 115.048 35C115.074 34.538 114.95 34.0798 114.695 33.6941C114.477 33.3955 114.167 33.1766 113.812 33.0706C113.43 32.9615 113.033 32.9178 112.636 32.9412C112.193 32.9645 111.753 33.0195 111.318 33.1059V34.9765C111.552 34.9432 111.79 34.9432 112.024 34.9765C112.181 35.0051 112.32 35.0938 112.412 35.2235C112.508 35.3841 112.56 35.5663 112.565 35.7529C112.565 35.9765 112.565 36.2706 112.565 36.6118V45.1765H115.295V38.3529C115.288 37.9027 115.368 37.4555 115.53 37.0353C115.675 36.654 115.895 36.3058 116.177 36.0118C116.447 35.7302 116.771 35.5061 117.13 35.3529C117.502 35.1951 117.902 35.1151 118.307 35.1176C119.061 35.1128 119.788 35.4043 120.33 35.9294C120.619 36.213 120.844 36.5549 120.99 36.9322C121.136 37.3095 121.2 37.7137 121.177 38.1176V42.1647V42.4588C121.177 45.3765 123.001 45.6823 125.342 45.2235V43.5294C124.095 43.6 123.86 43.2706 123.86 42.3529Z" fill="#00A6CA"/>
  <path d="M130.953 8.23529C128.737 8.22029 126.557 8.79132 124.634 9.89049C122.71 10.9896 121.112 12.5779 120 14.4941C119.607 15.0556 119.373 15.7121 119.322 16.395C119.27 17.078 119.402 17.7623 119.706 18.3765C120.077 18.8728 120.57 19.2662 121.136 19.5194C121.702 19.7726 122.323 19.8773 122.941 19.8235H124.541L123.964 21.6471C123.786 22.1547 123.727 22.6963 123.79 23.2305C123.853 23.7647 124.037 24.2774 124.329 24.7294C124.625 25.1142 125.01 25.422 125.45 25.6268C125.89 25.8316 126.373 25.9273 126.859 25.9059C127.632 25.9178 128.399 25.7613 129.106 25.4471C128.912 25.1698 128.754 24.8694 128.635 24.5529C128.527 24.2563 128.452 23.9485 128.412 23.6353C127.944 23.8058 127.45 23.8895 126.953 23.8823C126.777 23.8876 126.602 23.8533 126.441 23.782C126.28 23.7108 126.138 23.6043 126.023 23.4706C125.921 23.2944 125.857 23.0981 125.837 22.8951C125.816 22.6922 125.84 22.4872 125.906 22.2941L126.694 19.8471H129.164L129.823 17.8118H127.412L128.494 14.4706H126.329L125.247 17.8118H122.988C122.27 17.8118 121.812 17.6235 121.6 17.2588C121.388 16.8941 121.6 15.9765 122.176 14.9059C123.543 12.8683 125.575 11.3687 127.924 10.6631C130.274 9.95749 132.796 10.0898 135.059 11.0374C137.322 11.985 139.186 13.6891 140.332 15.8585C141.478 18.0279 141.835 20.5279 141.342 22.9313C140.849 25.3347 139.537 27.4923 137.629 29.0355C135.722 30.5786 133.338 31.4116 130.885 31.3919C128.431 31.3722 126.061 30.5012 124.179 28.9276C122.296 27.3541 121.019 25.1757 120.564 22.7647L118.564 23.1765C119.013 25.5186 120.118 27.6849 121.751 29.4229C123.383 31.1609 125.477 32.3988 127.786 32.9924C130.096 33.5859 132.527 33.5106 134.795 32.7752C137.063 32.0398 139.076 30.6747 140.598 28.8389C142.12 27.0032 143.089 24.7726 143.391 22.4072C143.694 20.0419 143.318 17.6392 142.307 15.4795C141.296 13.3198 139.691 11.4921 137.681 10.2094C135.671 8.9268 133.337 8.24213 130.953 8.23529Z" fill="#00A6CA"/>
  <path d="M138.953 24.1765C138.413 24.2103 137.874 24.0877 137.401 23.8235C137.184 23.6735 137.032 23.4462 136.977 23.1882C136.948 22.9942 136.968 22.796 137.036 22.6118L138.589 17.8235H136.471L135.142 21.9647C134.955 22.4929 134.621 22.9565 134.179 23.3005C133.737 23.6446 133.205 23.8546 132.648 23.9059C132.501 23.9102 132.355 23.8818 132.221 23.8228C132.087 23.7638 131.967 23.6756 131.871 23.5647C131.777 23.4242 131.719 23.2626 131.703 23.0942C131.686 22.9259 131.712 22.7561 131.777 22.6L133.33 17.8118H131.165L129.836 21.9529C129.663 22.4219 129.602 22.925 129.66 23.4216C129.717 23.9182 129.89 24.3944 130.165 24.8118C130.435 25.1812 130.79 25.4808 131.199 25.6854C131.608 25.89 132.061 25.9939 132.518 25.9882C133.609 25.9504 134.653 25.5346 135.471 24.8118C135.746 25.2416 136.162 25.562 136.648 25.7176C137.174 25.8962 137.728 25.976 138.283 25.9529C138.465 25.9492 138.647 25.9255 138.824 25.8824L138.953 25.6824L139.177 25.2824L139.389 24.8824L139.577 24.4588L139.695 24.1647C139.448 24.1816 139.201 24.1855 138.953 24.1765Z" fill="#00A6CA"/>
  <path d="M126.647 43.7765C126.627 43.554 126.655 43.3301 126.727 43.1187C126.799 42.9074 126.914 42.7134 127.065 42.5489C127.216 42.3845 127.4 42.2532 127.604 42.1633C127.808 42.0735 128.029 42.0271 128.252 42.0271C128.476 42.0271 128.696 42.0735 128.901 42.1633C129.105 42.2532 129.289 42.3845 129.44 42.5489C129.591 42.7134 129.706 42.9074 129.778 43.1187C129.85 43.3301 129.877 43.554 129.858 43.7765C129.877 43.9989 129.85 44.2229 129.778 44.4342C129.706 44.6455 129.591 44.8395 129.44 45.004C129.289 45.1685 129.105 45.2998 128.901 45.3896C128.696 45.4794 128.476 45.5258 128.252 45.5258C128.029 45.5258 127.808 45.4794 127.604 45.3896C127.4 45.2998 127.216 45.1685 127.065 45.004C126.914 44.8395 126.799 44.6455 126.727 44.4342C126.655 44.2229 126.627 43.9989 126.647 43.7765ZM129.588 43.7765C129.605 43.5922 129.584 43.4063 129.525 43.2307C129.467 43.0551 129.372 42.8937 129.247 42.7568C129.123 42.6199 128.971 42.5105 128.802 42.4356C128.632 42.3608 128.449 42.3221 128.264 42.3221C128.079 42.3221 127.896 42.3608 127.727 42.4356C127.557 42.5105 127.406 42.6199 127.281 42.7568C127.156 42.8937 127.062 43.0551 127.003 43.2307C126.945 43.4063 126.923 43.5922 126.941 43.7765C126.923 43.9608 126.945 44.1467 127.003 44.3223C127.062 44.4978 127.156 44.6593 127.281 44.7962C127.406 44.9331 127.557 45.0425 127.727 45.1173C127.896 45.1921 128.079 45.2308 128.264 45.2308C128.449 45.2308 128.632 45.1921 128.802 45.1173C128.971 45.0425 129.123 44.9331 129.247 44.7962C129.372 44.6593 129.467 44.4978 129.525 44.3223C129.584 44.1467 129.605 43.9608 129.588 43.7765ZM128.976 44.5176H128.729L128.329 43.9765H127.988V44.5176H127.741V43H128.376C128.446 42.9934 128.517 43.0016 128.584 43.0241C128.651 43.0466 128.712 43.0828 128.764 43.1304C128.817 43.1781 128.858 43.2361 128.886 43.3008C128.915 43.3654 128.929 43.4353 128.929 43.5059C128.934 43.6149 128.9 43.7221 128.833 43.8084C128.766 43.8946 128.671 43.9542 128.564 43.9765L128.976 44.5176ZM127.988 43.8118H128.364C128.407 43.817 128.45 43.8128 128.49 43.7996C128.531 43.7864 128.569 43.7645 128.6 43.7353C128.631 43.7062 128.656 43.6706 128.672 43.631C128.688 43.5913 128.696 43.5486 128.694 43.5059C128.692 43.4647 128.682 43.4241 128.665 43.3868C128.647 43.3495 128.622 43.316 128.592 43.2886C128.561 43.2611 128.525 43.2401 128.486 43.2269C128.447 43.2137 128.405 43.2086 128.364 43.2118H127.988V43.8118Z" fill="#00A6CA"/>
  <path d="M155.812 27.5412C157.602 27.4615 159.364 28.004 160.798 29.0763C162.233 30.1487 163.252 31.6848 163.683 33.4235H160.895C160.482 32.4261 159.768 31.5826 158.853 31.011C157.937 30.4393 156.866 30.1681 155.789 30.2353C152.259 30.2353 149.906 32.8235 149.906 36.5294C149.86 37.3301 149.978 38.1319 150.252 38.8854C150.527 39.6389 150.953 40.3283 151.504 40.9112C152.055 41.4941 152.719 41.9582 153.456 42.2749C154.193 42.5916 154.987 42.7543 155.789 42.7529C156.92 42.8193 158.042 42.5089 158.978 41.8704C159.915 41.2319 160.614 40.3011 160.965 39.2235H163.777C162.906 43.4824 159.318 45.3529 155.789 45.3529C154.612 45.398 153.439 45.1987 152.344 44.7676C151.248 44.3365 150.254 43.683 149.424 42.8484C148.594 42.0138 147.946 41.0161 147.52 39.9184C147.095 38.8207 146.902 37.6467 146.953 36.4706C146.902 35.2904 147.096 34.1123 147.522 33.0106C147.948 31.9088 148.598 30.9071 149.43 30.0685C150.262 29.2298 151.258 28.5724 152.357 28.1375C153.455 27.7025 154.632 27.4995 155.812 27.5412Z" fill="#00A6CA"/>
  <path d="M172.941 42.8353V45.1882H164.471V42.8353H167.235V30.0588H164.706V27.7059H172.671V30.0588H170.13V42.8353H172.941Z" fill="#00A6CA"/>
  <path d="M185.258 36.0118C186.102 36.2714 186.836 36.8039 187.345 37.5257C187.854 38.2475 188.109 39.1177 188.07 40C188.07 43.1177 185.928 45.1294 182.54 45.1294H174.752V27.7412H181.811C184.975 27.7412 187.293 29.3647 187.293 32.6471C187.326 33.3465 187.15 34.04 186.788 34.6391C186.425 35.2383 185.893 35.7161 185.258 36.0118ZM177.646 30.2588V35.0588H181.634C183.305 35.0588 184.446 34.4118 184.47 32.7059C184.493 31 183.293 30.2471 181.634 30.2471L177.646 30.2588ZM177.646 37.4235V42.6235H182.352C182.712 42.6581 183.075 42.6167 183.418 42.5022C183.762 42.3877 184.077 42.2025 184.344 41.9587C184.611 41.7148 184.824 41.4176 184.969 41.0863C185.115 40.7551 185.189 40.397 185.187 40.0353C185.207 39.6447 185.136 39.2549 184.981 38.8959C184.826 38.5369 184.591 38.2183 184.293 37.9647C183.618 37.5347 182.82 37.3403 182.023 37.4118L177.646 37.4235Z" fill="#00A6CA"/>
  <path d="M197.646 42.8353V45.1882H189.234V42.8353H191.999V30.0588H189.411V27.7059H197.376V30.0588H194.834V42.8353H197.646Z" fill="#00A6CA"/>
  <path d="M202.435 42.5529H209.929V45.1765H199.518V27.7412H202.435V42.5529Z" fill="#00A6CA"/>
  <path d="M211.295 43.7765C211.276 43.554 211.303 43.3301 211.375 43.1187C211.447 42.9074 211.563 42.7134 211.713 42.5489C211.864 42.3845 212.048 42.2532 212.252 42.1633C212.457 42.0735 212.678 42.0271 212.901 42.0271C213.124 42.0271 213.345 42.0735 213.549 42.1633C213.754 42.2532 213.937 42.3845 214.088 42.5489C214.239 42.7134 214.354 42.9074 214.426 43.1187C214.498 43.3301 214.526 43.554 214.507 43.7765C214.526 43.9989 214.498 44.2229 214.426 44.4342C214.354 44.6455 214.239 44.8395 214.088 45.004C213.937 45.1685 213.754 45.2998 213.549 45.3896C213.345 45.4794 213.124 45.5258 212.901 45.5258C212.678 45.5258 212.457 45.4794 212.252 45.3896C212.048 45.2998 211.864 45.1685 211.713 45.004C211.563 44.8395 211.447 44.6455 211.375 44.4342C211.303 44.2229 211.276 43.9989 211.295 43.7765ZM214.236 43.7765C214.254 43.5922 214.232 43.4063 214.174 43.2307C214.115 43.0551 214.02 42.8937 213.896 42.7568C213.771 42.6199 213.619 42.5105 213.45 42.4356C213.281 42.3608 213.098 42.3221 212.913 42.3221C212.727 42.3221 212.544 42.3608 212.375 42.4356C212.206 42.5105 212.054 42.6199 211.929 42.7568C211.805 42.8937 211.71 43.0551 211.652 43.2307C211.593 43.4063 211.572 43.5922 211.589 43.7765C211.572 43.9608 211.593 44.1467 211.652 44.3223C211.71 44.4978 211.805 44.6593 211.929 44.7962C212.054 44.9331 212.206 45.0425 212.375 45.1173C212.544 45.1921 212.727 45.2308 212.913 45.2308C213.098 45.2308 213.281 45.1921 213.45 45.1173C213.619 45.0425 213.771 44.9331 213.896 44.7962C214.02 44.6593 214.115 44.4978 214.174 44.3223C214.232 44.1467 214.254 43.9608 214.236 43.7765ZM213.624 44.5176H213.377L212.942 44H212.601V44.5412H212.354V43H212.989C213.059 42.9934 213.13 43.0016 213.197 43.0241C213.264 43.0466 213.326 43.0828 213.378 43.1304C213.43 43.1781 213.471 43.2361 213.5 43.3008C213.528 43.3654 213.542 43.4353 213.542 43.5059C213.547 43.6149 213.513 43.7221 213.446 43.8084C213.379 43.8946 213.284 43.9542 213.177 43.9765L213.624 44.5176ZM212.636 43.8118H213.013C213.055 43.817 213.098 43.8128 213.139 43.7996C213.18 43.7864 213.217 43.7645 213.248 43.7353C213.28 43.7062 213.304 43.6706 213.321 43.631C213.337 43.5913 213.344 43.5486 213.342 43.5059C213.341 43.4647 213.331 43.4241 213.313 43.3868C213.296 43.3495 213.271 43.316 213.24 43.2886C213.209 43.2611 213.173 43.2401 213.134 43.2269C213.095 43.2137 213.054 43.2086 213.013 43.2118H212.636V43.8118Z" fill="#00A6CA"/>
</svg>