<svg width="32" height="32" viewBox="0 0 32 32" fill="none" xmlns="http://www.w3.org/2000/svg">
<rect width="32" height="32" rx="16" fill="#EDEDED"/>
<g clip-path="url(#clip0_3456_2609)">
<path fill-rule="evenodd" clip-rule="evenodd" d="M10.7935 11.1012C10.5178 11.225 10.27 11.4545 10.1262 11.7188C10.0183 11.9171 10.018 11.9285 10.0034 15.7961C9.99324 18.5104 10.0054 19.7343 10.044 19.8735C10.1292 20.1805 10.3927 20.5014 10.6974 20.669L10.9686 20.8182H15.9965H21.0245L21.2965 20.669C21.5751 20.5163 21.8236 20.229 21.9337 19.9323C21.9762 19.8175 21.9935 18.8757 21.9962 16.5047L22 13.2354H21.4758H20.9515L20.938 16.4101C20.9268 19.0129 20.912 19.5995 20.8557 19.6669C20.7927 19.7423 20.391 19.7491 15.9965 19.7491C11.6014 19.7491 11.2003 19.7423 11.1373 19.6669C11.0804 19.5989 11.0686 18.9513 11.0686 15.9084V12.2321L11.1867 12.1371C11.3014 12.0448 11.4614 12.042 16.6274 12.042C22.5428 12.042 22.046 12.0741 21.8543 11.7044C21.726 11.457 21.4734 11.2242 21.1995 11.1012C20.9779 11.0016 20.8955 11 15.9965 11C11.0975 11 11.015 11.0016 10.7935 11.1012ZM12.1943 13.7575V14.2796H12.7196H13.2449V13.7575V13.2354H12.7196H12.1943V13.7575ZM14.3956 13.7575V14.2796H17.0971H19.7987V13.7575V13.2354H17.0971H14.3956V13.7575ZM12.1943 15.9453V16.4674H12.7196H13.2449V15.9453V15.4232H12.7196H12.1943V15.9453ZM14.3956 15.9453V16.4674H17.0971H19.7987V15.9453V15.4232H17.0971H14.3956V15.9453ZM12.1943 18.1331V18.6552H12.7196H13.2449V18.1331V17.611H12.7196H12.1943V18.1331ZM14.3956 18.1331V18.6552H17.0971H19.7987V18.1331V17.611H17.0971H14.3956V18.1331Z" fill="#00A6CA"/>
</g>
<defs>
<clipPath id="clip0_3456_2609">
<rect width="12" height="9.81818" fill="white" transform="translate(10 11)"/>
</clipPath>
</defs>
</svg>
