<svg width="32" height="32" viewBox="0 0 32 32" fill="none" xmlns="http://www.w3.org/2000/svg">
<rect width="32" height="32" rx="16" fill="#EDEDED"/>
<g clip-path="url(#clip0_3456_2561)">
<path d="M15.6016 12.9226C15.6016 12.714 15.8005 12.5449 16.046 12.5449H16.3571C16.6026 12.5449 16.8016 12.714 16.8016 12.9226V15.4151C16.8016 15.6236 16.6026 15.7927 16.3571 15.7927H16.046C15.8005 15.7927 15.6016 15.6236 15.6016 15.4151V12.9226Z" fill="#00A6CA"/>
<path d="M15.6016 16.6618C15.6016 16.4533 15.8005 16.2842 16.046 16.2842H16.3571C16.6026 16.2842 16.8016 16.4533 16.8016 16.6618V17.1905C16.8016 17.3991 16.6026 17.5682 16.3571 17.5682H16.046C15.8005 17.5682 15.6016 17.3991 15.6016 17.1905V16.6618Z" fill="#00A6CA"/>
<path fill-rule="evenodd" clip-rule="evenodd" d="M16.9976 12.0932H11.5717C11.1858 12.0932 11.1476 12.1288 11.1476 12.4949V17.7587C11.1476 18.1074 11.1932 18.1503 11.5579 18.1503H20.4223C20.7998 18.1503 20.8464 18.1095 20.8464 17.7424C20.8464 17.2604 20.847 16.7784 20.8476 16.2964C20.8488 15.3325 20.85 14.3685 20.8464 13.4045C20.8464 13.1843 20.9111 13.1231 21.1316 13.1404C21.3678 13.1532 21.6046 13.1532 21.8408 13.1404C21.9649 13.1404 21.9988 13.1812 21.9988 13.2954C21.9988 14.0744 21.9991 14.8505 21.9994 15.6276C21.9996 16.1666 21.9998 16.7061 21.9999 17.2474L22 17.9723V18.6397C22 19.5416 21.2399 20.2727 20.3023 20.2727H19.5344C19.4099 20.2727 19.3089 20.1756 19.3089 20.0559V19.2283C18.3546 19.2296 18.2001 19.2301 17.2457 19.221L14.9653 19.2322H11.4137C10.6218 19.2301 10.0175 18.6938 10.0111 17.928C9.99629 16.0517 9.99629 14.1754 10.0111 12.2991C10.0186 11.5537 10.6281 11 11.4042 11H20.5973C20.874 10.9986 21.1447 11.0773 21.3743 11.2259C21.6038 11.3744 21.7815 11.586 21.8843 11.8331C21.9829 12.0738 21.9713 12.0911 21.7041 12.0911H16.9976V12.0932Z" fill="#00A6CA"/>
</g>
<defs>
<clipPath id="clip0_3456_2561">
<rect width="12" height="9.27273" fill="white" transform="translate(10 11)"/>
</clipPath>
</defs>
</svg>
