<svg width="32" height="32" viewBox="0 0 32 32" fill="none" xmlns="http://www.w3.org/2000/svg">
<rect width="32" height="32" rx="16" fill="#EDEDED"/>
<g clip-path="url(#clip0_3456_4509)">
<path fill-rule="evenodd" clip-rule="evenodd" d="M13.9053 10.048C13.7377 10.075 13.3927 10.1949 13.1386 10.3145C12.3572 10.6824 11.7686 11.3822 11.5524 12.2002C11.4557 12.5662 11.4428 13.3365 11.5274 13.6981C11.6201 14.0948 11.8944 14.6015 12.1875 14.9176L12.4612 15.2128L12.0287 15.4904C11.3729 15.9115 10.8078 16.5359 10.47 17.213C10.041 18.0728 10.0009 18.2811 10.0001 19.6519C9.99941 20.8228 9.9998 20.8267 10.1492 21.1057C10.2315 21.2596 10.4159 21.487 10.5589 21.6111C10.9714 21.9689 11.1532 22 12.835 22C13.637 22 14.2926 21.9938 14.2919 21.9863C14.2913 21.9789 14.2046 21.7269 14.0992 21.4266L13.9076 20.8805L12.6919 20.8532C11.489 20.8262 11.4747 20.8245 11.3286 20.6894L11.1811 20.5529L11.2044 19.5153C11.2247 18.6133 11.244 18.4334 11.3522 18.138C11.7079 17.1672 12.5751 16.364 13.5748 16.0795C13.7434 16.0316 14.1803 15.9699 14.5457 15.9425C15.2674 15.8885 15.6125 15.7885 16.0656 15.502C16.6646 15.123 17.1476 14.5011 17.3483 13.8499C17.5009 13.3544 17.4755 12.4711 17.2946 11.9816C17.0268 11.2573 16.4662 10.6469 15.7613 10.3117C15.1363 10.0146 14.5936 9.93751 13.9053 10.048ZM15.2073 11.3554C15.5598 11.5198 15.9487 11.9021 16.1196 12.2525C16.3158 12.6547 16.3143 13.2857 16.1162 13.6996C15.9551 14.0361 15.59 14.4229 15.2932 14.5715C14.5969 14.92 13.7436 14.7857 13.1903 14.2405C12.2308 13.2951 12.5951 11.7639 13.894 11.2822C14.2523 11.1494 14.8349 11.1818 15.2073 11.3554Z" fill="#00A6CA"/>
<path fill-rule="evenodd" clip-rule="evenodd" d="M15.7891 18.1835V18.9188H18.8925H21.9959V18.1835V17.4482H18.8925H15.7891V18.1835ZM15.7891 21.2647V22H18.8925H21.9959V21.2647V20.5294H18.8925H15.7891V21.2647Z" fill="#00A6CA"/>
</g>
<defs>
<clipPath id="clip0_3456_4509">
<rect width="12" height="12" fill="white" transform="translate(10 10)"/>
</clipPath>
</defs>
</svg>
