<svg width="139" height="40" viewBox="0 0 139 40" fill="none" xmlns="http://www.w3.org/2000/svg">
<path d="M133.784 40H5.75478C2.93942 40 0.633621 37.7487 0.633621 35V5C0.633621 2.25125 2.93942 2.11397e-06 5.75478 2.11397e-06H133.784C136.599 2.11397e-06 138.905 2.25125 138.905 5V35C138.905 37.7487 136.599 40 133.784 40Z" fill="black"/>
<path d="M133.784 0.801252C136.155 0.801252 138.084 2.685 138.084 5V35C138.084 37.315 136.155 39.1988 133.784 39.1988H5.75478C3.38368 39.1988 1.45429 37.315 1.45429 35V5C1.45429 2.685 3.38368 0.801252 5.75478 0.801252H133.784ZM133.784 2.11397e-06H5.75478C2.93942 2.11397e-06 0.633621 2.25125 0.633621 5V35C0.633621 37.7487 2.93942 40 5.75478 40H133.784C136.599 40 138.905 37.7487 138.905 35V5C138.905 2.25125 136.599 2.11397e-06 133.784 2.11397e-06Z" fill="#A6A6A6" fill-opacity="0.2"/>
<path d="M49.1998 10.244C49.1998 11.079 48.9438 11.7477 48.4394 12.2465C47.8594 12.8377 47.104 13.1352 46.1784 13.1352C45.2937 13.1352 44.5383 12.8327 43.9187 12.2365C43.2977 11.6315 42.9879 10.889 42.9879 10.0002C42.9879 9.11148 43.2977 8.36898 43.9187 7.76898C44.5383 7.16773 45.2937 6.86523 46.1784 6.86523C46.6188 6.86523 47.0387 6.95398 47.4394 7.11898C47.8389 7.28523 48.1641 7.51023 48.3997 7.78773L47.8645 8.31523C47.4535 7.84149 46.894 7.60774 46.1784 7.60774C45.5331 7.60774 44.9736 7.82773 44.4986 8.27148C44.0288 8.71648 43.7932 9.29273 43.7932 10.0002C43.7932 10.7077 44.0288 11.289 44.4986 11.734C44.9736 12.1727 45.5331 12.3977 46.1784 12.3977C46.8633 12.3977 47.4395 12.1727 47.894 11.729C48.1935 11.4352 48.3638 11.0302 48.4086 10.5127H46.1784V9.79023H49.1538C49.1896 9.94648 49.1998 10.0977 49.1998 10.244Z" fill="white" stroke="white" stroke-width="0.16" stroke-miterlimit="10"/>
<path d="M53.9207 7.73857H51.1259V9.63857H53.6455V10.3611H51.1259V12.2611H53.9207V12.9973H50.3346V7.00232H53.9207V7.73857Z" fill="white" stroke="white" stroke-width="0.16" stroke-miterlimit="10"/>
<path d="M57.2512 12.9977H56.46V7.73897H54.7457V7.00272H58.9668V7.73897H57.2512V12.9977Z" fill="white" stroke="white" stroke-width="0.16" stroke-miterlimit="10"/>
<path d="M62.0214 12.9975V7.00247H62.8113V12.9975H62.0214Z" fill="white" stroke="white" stroke-width="0.16" stroke-miterlimit="10"/>
<path d="M66.3137 12.9973H65.5289V7.73857H63.8082V7.00232H68.0344V7.73857H66.3137V12.9973Z" fill="white" stroke="white" stroke-width="0.16" stroke-miterlimit="10"/>
<path d="M76.0259 12.2261C75.4203 12.8324 74.67 13.1349 73.7751 13.1349C72.8751 13.1349 72.1248 12.8324 71.5193 12.2261C70.915 11.6211 70.6141 10.8786 70.6141 9.99987C70.6141 9.12112 70.915 8.37862 71.5193 7.77362C72.1248 7.16737 72.8751 6.86487 73.7751 6.86487C74.6649 6.86487 75.4152 7.16737 76.0208 7.77862C76.6302 8.38862 76.931 9.12612 76.931 9.99987C76.931 10.8786 76.6302 11.6211 76.0259 12.2261ZM72.1043 11.7236C72.5601 12.1724 73.1145 12.3974 73.7751 12.3974C74.4306 12.3974 74.9901 12.1724 75.4408 11.7236C75.8953 11.2749 76.1257 10.6986 76.1257 9.99987C76.1257 9.30112 75.8953 8.72487 75.4408 8.27612C74.9901 7.82737 74.4306 7.60237 73.7751 7.60237C73.1145 7.60237 72.5601 7.82737 72.1043 8.27612C71.6498 8.72487 71.4194 9.30112 71.4194 9.99987C71.4194 10.6986 71.6498 11.2749 72.1043 11.7236Z" fill="white" stroke="white" stroke-width="0.16" stroke-miterlimit="10"/>
<path d="M78.0401 12.9975V7.00247H79.0003L81.986 11.665H82.0205L81.986 10.5125V7.00247H82.7759V12.9975H81.9514L78.8249 8.10497H78.7903L78.8249 9.26247V12.9975H78.0401Z" fill="white" stroke="white" stroke-width="0.16" stroke-miterlimit="10"/>
<path d="M70.4194 21.7525C68.0137 21.7525 66.0485 23.54 66.0485 26.0063C66.0485 28.4525 68.0137 30.2588 70.4194 30.2588C72.8302 30.2588 74.7954 28.4525 74.7954 26.0063C74.7954 23.54 72.8302 21.7525 70.4194 21.7525ZM70.4194 28.5838C69.0994 28.5838 67.9638 27.52 67.9638 26.0063C67.9638 24.4725 69.0994 23.4275 70.4194 23.4275C71.7394 23.4275 72.8801 24.4725 72.8801 26.0063C72.8801 27.52 71.7394 28.5838 70.4194 28.5838ZM60.8825 21.7525C58.4718 21.7525 56.5116 23.54 56.5116 26.0063C56.5116 28.4525 58.4718 30.2588 60.8825 30.2588C63.292 30.2588 65.2534 28.4525 65.2534 26.0063C65.2534 23.54 63.292 21.7525 60.8825 21.7525ZM60.8825 28.5838C59.5613 28.5838 58.4218 27.52 58.4218 26.0063C58.4218 24.4725 59.5613 23.4275 60.8825 23.4275C62.2025 23.4275 63.3381 24.4725 63.3381 26.0063C63.3381 27.52 62.2025 28.5838 60.8825 28.5838ZM49.5341 23.0563V24.8638H53.9549C53.8256 25.8738 53.4799 26.6163 52.9499 27.1338C52.3046 27.7588 51.2996 28.4525 49.5341 28.4525C46.8135 28.4525 44.683 26.3088 44.683 23.6525C44.683 20.9963 46.8135 18.8525 49.5341 18.8525C51.0051 18.8525 52.0754 19.4138 52.8654 20.1413L54.17 18.8675C53.0651 17.8375 51.5953 17.0463 49.5341 17.0463C45.8033 17.0463 42.6679 20.01 42.6679 23.6525C42.6679 27.295 45.8033 30.2588 49.5341 30.2588C51.5505 30.2588 53.0651 29.6138 54.2558 28.4038C55.4759 27.2125 55.8561 25.5375 55.8561 24.185C55.8561 23.765 55.8203 23.3788 55.7563 23.0563H49.5341ZM95.9394 24.4575C95.5796 23.5063 94.4696 21.7525 92.2086 21.7525C89.9681 21.7525 88.1028 23.4763 88.1028 26.0063C88.1028 28.3888 89.9489 30.2588 92.4237 30.2588C94.4248 30.2588 95.5796 29.0675 96.0546 28.3738L94.5695 27.4075C94.074 28.115 93.3993 28.5838 92.4237 28.5838C91.4546 28.5838 90.7594 28.15 90.3138 27.295L96.1404 24.9413L95.9394 24.4575ZM89.9989 25.8738C89.9489 24.2338 91.3035 23.3938 92.2739 23.3938C93.0344 23.3938 93.6797 23.765 93.8948 24.2963L89.9989 25.8738ZM85.2631 30H87.1784V17.5H85.2631V30ZM82.1264 22.7H82.0624C81.6322 22.2025 80.8115 21.7525 79.7719 21.7525C77.5903 21.7525 75.5956 23.6225 75.5956 26.02C75.5956 28.4038 77.5903 30.2588 79.7719 30.2588C80.8115 30.2588 81.6322 29.805 82.0624 29.2925H82.1264V29.9025C82.1264 31.5288 81.2366 32.4025 79.8014 32.4025C78.6312 32.4025 77.9053 31.5775 77.6057 30.8838L75.94 31.5625C76.4201 32.69 77.6914 34.0775 79.8014 34.0775C82.047 34.0775 83.9418 32.7875 83.9418 29.6488V22.0113H82.1264V22.7ZM79.9358 28.5838C78.6158 28.5838 77.5109 27.505 77.5109 26.02C77.5109 24.5213 78.6158 23.4275 79.9358 23.4275C81.2366 23.4275 82.2621 24.5213 82.2621 26.02C82.2621 27.505 81.2366 28.5838 79.9358 28.5838ZM104.907 17.5H100.326V30H102.236V25.2638H104.907C107.028 25.2638 109.108 23.765 109.108 21.3813C109.108 18.9988 107.023 17.5 104.907 17.5ZM104.956 23.525H102.236V19.2388H104.956C106.383 19.2388 107.197 20.395 107.197 21.3813C107.197 22.3488 106.383 23.525 104.956 23.525ZM116.765 21.7288C115.384 21.7288 113.949 22.3238 113.359 23.6425L115.054 24.3363C115.419 23.6425 116.09 23.4175 116.799 23.4175C117.79 23.4175 118.795 23.9988 118.81 25.025V25.1563C118.465 24.9613 117.725 24.6725 116.815 24.6725C114.989 24.6725 113.129 25.6538 113.129 27.485C113.129 29.16 114.624 30.2388 116.305 30.2388C117.59 30.2388 118.3 29.6725 118.745 29.0138H118.81V29.98H120.655V25.185C120.655 22.9688 118.96 21.7288 116.765 21.7288ZM116.534 28.5788C115.909 28.5788 115.039 28.2763 115.039 27.52C115.039 26.5525 116.124 26.1813 117.064 26.1813C117.905 26.1813 118.3 26.3625 118.81 26.6013C118.661 27.7588 117.64 28.5788 116.534 28.5788ZM127.377 22.0025L125.181 27.4213H125.116L122.846 22.0025H120.786L124.197 29.575L122.251 33.7888H124.247L129.502 22.0025H127.377ZM110.158 30H112.074V17.5H110.158V30Z" fill="white"/>
<g clip-path="url(#clip0_3439_1102)">
<path d="M24.1545 19.48L11.577 32.0575C10.9758 31.4887 10.6508 30.7087 10.6508 29.8637V10.1362C10.6508 9.27497 10.992 8.49497 11.6095 7.90997L24.1545 19.48Z" fill="#2196F3"/>
<path d="M35.0258 20C35.0258 21.1375 34.4083 22.145 33.3845 22.7137L29.8095 24.6962L25.3733 20.6012L24.1545 19.48L28.8508 14.7837L33.3845 17.2862C34.4083 17.855 35.0258 18.8625 35.0258 20Z" fill="#FFC107"/>
<path d="M24.1545 19.48L11.6095 7.90997C11.772 7.74747 11.9833 7.60122 12.1945 7.47122C13.2183 6.85372 14.4533 6.83747 15.5095 7.42247L28.8508 14.7837L24.1545 19.48Z" fill="#4CAF50"/>
<path d="M29.8095 24.6962L15.5095 32.5775C15.0058 32.87 14.437 33 13.8845 33C13.2995 33 12.7145 32.8537 12.1945 32.5287C11.9689 32.3995 11.7612 32.241 11.577 32.0575L24.1545 19.48L25.3733 20.6012L29.8095 24.6962Z" fill="#F44336"/>
</g>
<defs>
<clipPath id="clip0_3439_1102">
<rect width="26" height="26" fill="white" transform="translate(10.6345 6.99997)"/>
</clipPath>
</defs>
</svg>
